<?xml version="1.0" encoding="UTF-8" standalone="no"?>
<svg
   xmlns:dc="http://purl.org/dc/elements/1.1/"
   xmlns:cc="http://creativecommons.org/ns#"
   xmlns:rdf="http://www.w3.org/1999/02/22-rdf-syntax-ns#"
   xmlns:svg="http://www.w3.org/2000/svg"
   xmlns="http://www.w3.org/2000/svg"
   xmlns:xlink="http://www.w3.org/1999/xlink"
   xmlns:sodipodi="http://sodipodi.sourceforge.net/DTD/sodipodi-0.dtd"
   xmlns:inkscape="http://www.inkscape.org/namespaces/inkscape"
   version="1.1"
   id="Layer_1"
   x="0px"
   y="0px"
   width="527.99603"
   height="124.83801"
   viewBox="0 0 527.99601 124.838"
   enable-background="new 0 0 595.28 841.89"
   xml:space="preserve"
   inkscape:version="0.48.3.1 r9886"
   sodipodi:docname="Barclays-Premier-League.svg"><metadata
   id="metadata73"><rdf:RDF><cc:Work
       rdf:about=""><dc:format>image/svg+xml</dc:format><dc:type
         rdf:resource="http://purl.org/dc/dcmitype/StillImage" /></cc:Work></rdf:RDF></metadata><defs
   id="defs71" /><sodipodi:namedview
   pagecolor="#ffffff"
   bordercolor="#666666"
   borderopacity="1"
   objecttolerance="10"
   gridtolerance="10"
   guidetolerance="10"
   inkscape:pageopacity="0"
   inkscape:pageshadow="2"
   inkscape:window-width="640"
   inkscape:window-height="480"
   id="namedview69"
   showgrid="false"
   fit-margin-top="0"
   fit-margin-left="0"
   fit-margin-right="0"
   fit-margin-bottom="0"
   inkscape:zoom="0.28032165"
   inkscape:cx="264.506"
   inkscape:cy="61.966001"
   inkscape:window-x="0"
   inkscape:window-y="0"
   inkscape:window-maximized="0"
   inkscape:current-layer="Layer_1" />
<path
   d="m 49.141991,105.588 0,0 c 5.746,11.695 18.335,19.25 32.063,19.25 H 460.75999 c 33.908,0 61.494,-27.583 61.494,-61.498 0,-33.915 -27.586,-63.34 -61.494,-63.34 H 3.0809905 C 1.3809905,0 -9.4696599e-6,1.385 -9.4696599e-6,3.084 -9.4696599e-6,3.602 0.12499053,4.086 0.34899053,4.52 L 49.141991,105.588"
   id="path3"
   inkscape:connector-curvature="0"
   style="fill:#bcdeeb" />
<path
   d="m 463.64799,113.235 c 28.361,0 55.842,-18.573 55.842,-46.728 0,-28.159 -18.353,-55.519 -54.877,-55.519 H 14.951991 c -1.832,0 -3.314,1.486 -3.314,3.321 0,0.552 0.139,1.081 0.372,1.538 0.224,0.423 43.992,83.405 43.992,83.405 4.094,8.347 13.497,13.999 23.713,13.999 l 383.932999,-0.016"
   id="path5"
   inkscape:connector-curvature="0"
   style="fill:#00245d" />
<path
   clip-rule="evenodd"
   d="m 349.23899,42.668 c 2.424,-4.087 13.94,-22.229 16.501,-22.805 h -13.236 c 0.518,0.576 0.69,1.859 0.69,3.011 0,1.469 -0.623,3.013 -1.392,4.232 -3.071,4.991 -5.442,8.652 -8.838,13.968 -1.405,-4.033 -3.758,-9.481 -6.966,-16.731 -2.034,-4.48 -2.952,-4.93 -6.268,-4.93 -1.858,0 -5.698,0.193 -8.701,0.45 1.72,0.836 4.479,5.127 6.843,9.67 3.708,7.25 6.139,13.213 7.934,19.423 0.132,4.354 -0.833,18.139 -3.206,20.381 h 13.375 c -1.02,-1.029 -1.396,-4.036 -1.396,-6.284 0,-5.377 0.376,-10.253 1.135,-13.907 0.907,-1.916 2.374,-4.547 3.525,-6.478"
   id="path7"
   inkscape:connector-curvature="0"
   style="fill:#ffffff;fill-rule:evenodd" />
<path
   clip-rule="evenodd"
   d="m 104.26699,41.531 c 5.445,-1.412 11.387,-5.394 11.387,-11.797 0,-9.606 -9.213,-9.871 -13.815,-9.871 H 82.513991 c 0.966,0.769 1.355,3.011 1.406,6.478 0.067,4.022 -0.319,9.795 -0.824,17.31 l -0.196,3.071 c -0.958,13.199 -1.53,20.693 -3.707,22.616 h 17.258 c 13.177999,0 21.243999,-6.792 21.243999,-15.373 10e-4,-7.955 -5.755,-11.665 -13.428,-12.434 M 92.757991,36.397 c 0.261,-3.657 0.565,-6.985 1.083,-10.452 1.216,-0.116 2.492,-0.116 3.46,-0.116 5.826999,0 8.569999,2.306 8.569999,5.624 0,5.771 -5.753,7.964 -12.030999,7.964 h -1.284 c 0.002,0.116 0.202,-3.02 0.202,-3.02 m 3.199,26.852 c -3.334,0 -4.73,-0.961 -4.73,-1.416 0.054,-3.199 0.183,-5.888 0.447,-9.094 l 0.504,-7.304 h 3.512 c 6.527999,0 11.708999,2.305 11.708999,8.648 0,5.713 -4.54,9.166 -11.441999,9.166"
   id="path9"
   inkscape:connector-curvature="0"
   style="fill:#ffffff;fill-rule:evenodd" />
<path
   clip-rule="evenodd"
   d="m 384.29199,40.752 c -4.863,-3.142 -9.528,-5.695 -9.528,-9.481 0,-4.486 3.714,-6.213 7.92,-6.213 4.802,0 9.224,2.824 11.269,6.535 l 1.273,-11.729 c -3.376,0 -6.722,-0.965 -12.031,-0.965 -9.143,0 -17.963,3.535 -17.963,14.1 0,7.047 5.104,10.961 13.176,15.837 3.84,2.306 6.968,4.615 6.968,8.326 0,4.357 -3.829,6.846 -9.023,6.846 -6.701,0 -11.259,-3.89 -13.687,-8.82 l -0.826,12.345 c 5.042,1.93 9.539,2.766 13.822,2.766 10.419,0 19.438,-5.711 19.438,-14.993 -10e-4,-7.125 -5.505,-11.222 -10.808,-14.554"
   id="path11"
   inkscape:connector-curvature="0"
   style="fill:#ffffff;fill-rule:evenodd" />
<path
   clip-rule="evenodd"
   d="m 156.71699,47.297 -2.109,-7.818 c -2.495,-8.916 -5.319,-19.616 -5.319,-19.616 h -10.741 c 0.386,0.894 0.653,1.798 0.653,2.76 0,1.083 -3.339,8.648 -6.46,15.322 l -3.471,7.361 c -5.939,12.755 -10.233,20.628 -13.616,24.031 h 11.824 c -0.251,-0.972 -0.312,-1.615 -0.312,-2.242 -0.07,-2.76 2.425,-7.503 3.451,-9.819 l 1.022,-2.174 h 5.885 c 5.82,0 9.484,-0.44 11.523,-1.405 l 1.195,4.303 c 3.407,11.655 3.722,11.78 7.944,11.78 1.344,0 4.791,-0.125 7.547,-0.443 -3.073,-2.502 -5.372,-8.915 -9.016,-22.04 m -22.056,1.399 7.984,-17.242 4.995,17.242 h -12.979 z"
   id="path13"
   inkscape:connector-curvature="0"
   style="fill:#ffffff;fill-rule:evenodd" />
<path
   clip-rule="evenodd"
   d="m 221.25299,46.265 c 0,-9.813 4.293,-21.208 14.828,-21.208 5.326,0 9.292,3.01 11.726,7.432 l 1.272,-12.626 c -4.296,0 -6.789,-0.965 -12.098,-0.965 -16.941,0 -25.829,12.694 -25.829,29.1 0,11.797 7.347,22.3 20.076,22.3 9.792,0 15.731,-4.93 18.294,-13.137 -6.328,4.412 -10.104,5.56 -14.39,5.56 -7.931,0 -13.879,-5.828 -13.879,-16.456"
   id="path15"
   inkscape:connector-curvature="0"
   style="fill:#ffffff;fill-rule:evenodd" />
<path
   clip-rule="evenodd"
   d="m 204.95199,61.187 -10.053,-13.324 c -0.694,-0.888 -1.859,-2.364 -2.482,-2.933 6.592,-2.068 11.885,-6.423 11.885,-14.367 0,-9.671 -8.181,-10.7 -14.13,-10.7 h -18.244 c 0.979,0.769 1.364,2.953 1.416,6.478 0.074,4.022 -0.319,9.795 -0.827,17.229 l -0.199,3.152 c -1.083,15.112 -1.788,20.891 -3.705,22.616 h 13.368 c -0.894,-0.833 -1.28,-2.892 -1.345,-6.22 0,-3 0.19,-7.053 0.508,-12.105 l 0.254,-3.714 h 0.328 c 1.721,0 2.56,1.212 3.644,2.685 l 13.812,19.216 c 1.223,1.676 2.116,2.262 5.77,2.262 2.431,0 6.2,-0.139 9,-0.461 -2.245,-1.152 -2.75,-1.539 -9,-9.814 m -20.865,-19.856 c -0.762,0 -1.594,-0.061 -2.241,-0.189 l 0.251,-3.461 c 0.457,-5.895 0.789,-9.545 1.158,-11.668 1.145,-0.125 2.634,-0.125 3.847,-0.125 4.666,0 7.358,2.248 7.358,6.085 -0.001,5.637 -4.23,9.358 -10.373,9.358"
   id="path17"
   inkscape:connector-curvature="0"
   style="fill:#ffffff;fill-rule:evenodd" />
<path
   clip-rule="evenodd"
   d="m 316.80399,47.297 -2.109,-7.818 c -0.944,-3.471 -5.303,-19.616 -5.303,-19.616 h -10.747 c 0.386,0.894 0.64,1.798 0.64,2.76 0,1.331 -3.203,8.394 -6.47,15.322 l -3.458,7.361 c -2.539,5.506 -5.167,10.829 -7.47,15.059 -3.714,2.502 -5.753,2.688 -13.94,2.688 -2.302,0 -3.2,-0.508 -3.2,-2.747 0,-4.876 0.641,-9.874 0.962,-14.747 l 0.254,-3.146 c 0.897,-13.142 1.609,-21.078 3.516,-22.551 h -13.497 c 0.9,0.961 1.205,3.082 1.279,6.4 0.061,4.046 -0.297,9.823 -0.826,17.307 l -0.197,3.152 c -0.958,13.128 -1.598,20.374 -3.568,22.616 h 34.921 c -0.274,-0.914 -0.343,-1.615 -0.343,-2.242 0,-2.701 1.998,-6.542 3.457,-9.819 l 1.022,-2.174 h 5.896 c 5.824,0 9.475,-0.44 11.522,-1.405 l 1.199,4.303 c 3.406,11.655 3.711,11.78 7.94,11.78 1.338,0 4.987,-0.125 7.54,-0.443 -3.074,-2.502 -5.359,-8.915 -9.02,-22.04 m -21.989,1.399 7.913,-17.242 5.004,17.242 h -12.917 z"
   id="path19"
   inkscape:connector-curvature="0"
   style="fill:#ffffff;fill-rule:evenodd" />
<path
   d="m 84.051991,93.064 c -0.183,2.299 -0.44,7.045 -0.44,7.886 0,1.392 -0.179,2.848 0.658,4.596 h -7.375 c 0.765,-1.454 1.061,-2.953 1.243,-4.302 0.183,-1.424 0.403,-3.799 0.508,-5.516 l 0.549,-8.254 c 0.112,-1.715 0.261,-3.867 0.261,-5.987 0,-1.128 -0.079,-2.733 -0.623,-4.122 h 10.148 c 5.553,0 9.386,1.457 9.386,6.645 -0.002,7.046 -7.813,9.054 -14.315,9.054 m 3.539,-12.346 c -0.982,0 -1.713,-0.031 -2.482,0.041 -0.329,2.481 -0.653,6.758 -0.803,9.273 6.102,0 8.29,-2.153 8.29,-5.516 -0.001,-2.444 -1.643,-3.798 -5.005,-3.798"
   id="path21"
   inkscape:connector-curvature="0"
   style="fill:#71caee" />
<path
   d="m 120.22899,106.753 c -2.08,0 -2.628,-0.332 -3.322,-1.276 l -7.886,-10.954 c -0.616,-0.837 -1.093,-1.534 -2.079,-1.534 h -0.183 l -0.146,2.12 c -0.183,2.881 -0.291,5.184 -0.291,6.9 0.037,1.896 0.257,3.065 0.765,3.536 h -7.634999 c 1.099999,-0.989 1.611999,-4.267 2.125999,-12.882 l 0.108,-1.794 c 0.25,-4.236 0.508,-7.517 0.474,-9.82 -0.038,-2.007 -0.258,-3.247 -0.803,-3.685 h 10.402 c 3.399,0 8.073,0.584 8.073,6.092 0,4.531 -3.035,7.014 -6.796,8.184 0.365,0.326 1.025,1.166 1.425,1.678 l 5.729,7.588 c 3.583,4.713 3.877,4.934 5.15,5.591 -1.606,0.186 -3.723,0.256 -5.111,0.256 m -10.216,-25.961 c -0.694,0 -1.541,0 -2.194,0.078 -0.217,1.201 -0.404,3.285 -0.654,6.646 l -0.153,1.971 c 0.369,0.072 0.847,0.107 1.28,0.107 3.505,0 5.916,-2.121 5.916,-5.328 0.001,-2.194 -1.533,-3.474 -4.195,-3.474"
   id="path23"
   inkscape:connector-curvature="0"
   style="fill:#71caee" />
<path
   d="m 144.00199,82.296 c -2.444,-1.463 -4.164,-1.688 -7.927,-1.688 h -2.414 c -0.288,1.791 -0.579,5.555 -0.758,7.928 h 3.359 c 3.139,0 5.001,-0.149 6.64,-0.657 l -0.653,4.456 c -2.885,-0.474 -4.781,-0.369 -7.453,-0.369 h -2.154 c -0.217,2.997 -0.545,7.707 -0.545,8.475 0,1.856 0.22,2.073 1.679,2.073 5.256,0 7.667,-1.271 10.626,-4.087 -0.985,6.762 -1.389,7.118 -5.184,7.118 h -13.727 c 0.623,-1.232 0.911,-2.364 1.134,-3.942 0.471,-3.575 0.688,-7.114 0.908,-10.733 0.257,-4.308 0.515,-7.558 0.477,-9.854 -0.041,-1.425 -0.149,-2.484 -0.623,-3.65 h 17.415 l -0.8,4.93"
   id="path25"
   inkscape:connector-curvature="0"
   style="fill:#71caee" />
<path
   d="m 177.92499,87.474 v 11.173 c 0,1.826 0,3.394 0.105,4.599 0.074,0.741 0.183,1.357 0.697,2.3 h -6.647 c 0.982,-1.714 0.84,-2.737 0.874,-4.596 0.077,-4.89 0.108,-10.442 0.108,-16.683 -3.871,7.916 -9.125,19.564 -9.894,21.278 h -1.934 l -6.935,-21.536 -1.974,13.725 c -0.404,2.707 -0.586,5.478 -0.586,6.063 0,0.471 0.149,0.87 0.549,1.748 h -5.33 c 0.623,-0.905 0.803,-1.277 0.915,-1.748 0.216,-0.765 0.288,-1.788 0.474,-2.956 l 2.702,-18.082 c 0.183,-1.198 0.329,-2.546 0.329,-3.792 0,-0.437 -0.075,-0.8 -0.369,-1.603 h 6.688 c 0.145,1.166 0.504,2.412 0.839,3.469 l 5.032,15.701 7.927,-16.758 c 0.37,-0.81 0.732,-1.537 0.952,-2.412 h 6.457 c -0.95,2.226 -0.979,6.753 -0.979,10.11"
   id="path27"
   inkscape:connector-curvature="0"
   style="fill:#71caee" />
<path
   d="m 190.22599,85.032 -0.731,10.767 c -0.15,2.343 -0.333,4.348 -0.333,6.061 0,1.459 0.112,2.669 0.519,3.686 h -7.27 c 0.657,-1.232 0.952,-2.445 1.134,-3.794 0.292,-1.932 0.512,-4.164 0.66,-6.352 l 0.545,-8.035 c 0.068,-1.168 0.288,-3.325 0.288,-5.404 0,-1.721 -0.148,-3.355 -0.727,-4.596 h 7.337 c -0.508,1.203 -1.056,2.151 -1.422,7.667"
   id="path29"
   inkscape:connector-curvature="0"
   style="fill:#71caee" />
<path
   d="m 212.31299,82.296 c -2.444,-1.463 -4.164,-1.688 -7.923,-1.688 h -2.414 c -0.292,1.791 -0.583,5.555 -0.762,7.928 h 3.359 c 3.139,0 5.004,-0.149 6.64,-0.657 l -0.657,4.456 c -2.881,-0.474 -4.781,-0.369 -7.446,-0.369 h -2.154 c -0.223,2.997 -0.548,7.707 -0.548,8.475 0,1.856 0.22,2.073 1.68,2.073 5.259,0 7.669,-1.271 10.622,-4.087 -0.981,6.762 -1.385,7.118 -5.177,7.118 h -13.733 c 0.626,-1.232 0.917,-2.364 1.135,-3.942 0.477,-3.575 0.693,-7.114 0.914,-10.733 0.254,-4.308 0.512,-7.558 0.474,-9.854 -0.037,-1.425 -0.149,-2.484 -0.623,-3.65 h 17.418 l -0.805,4.93"
   id="path31"
   inkscape:connector-curvature="0"
   style="fill:#71caee" />
<path
   d="m 236.19499,106.753 c -2.089,0 -2.631,-0.332 -3.325,-1.276 l -7.89,-10.954 c -0.62,-0.837 -1.097,-1.534 -2.079,-1.534 h -0.183 l -0.146,2.12 c -0.183,2.881 -0.288,5.184 -0.288,6.9 0.031,1.896 0.244,3.065 0.762,3.536 h -7.629 c 1.094,-0.989 1.605,-4.267 2.117,-12.882 l 0.112,-1.794 c 0.25,-4.236 0.508,-7.517 0.47,-9.82 -0.038,-2.007 -0.258,-3.247 -0.803,-3.685 h 10.406 c 3.396,0 8.069,0.584 8.069,6.092 0,4.531 -3.031,7.014 -6.789,8.184 0.362,0.326 1.019,1.166 1.418,1.678 l 5.736,7.588 c 3.579,4.713 3.867,4.934 5.146,5.591 -1.603,0.186 -3.719,0.256 -5.104,0.256 m -10.229,-25.961 c -0.69,0 -1.527,0 -2.188,0.078 -0.223,1.201 -0.403,3.285 -0.664,6.646 l -0.146,1.971 c 0.37,0.072 0.843,0.107 1.28,0.107 3.511,0 5.915,-2.121 5.915,-5.328 0.001,-2.194 -1.529,-3.474 -4.197,-3.474"
   id="path33"
   inkscape:connector-curvature="0"
   style="fill:#71caee" />
<path
   d="m 269.34099,105.545 h -16.795 c 0.657,-1.232 0.915,-2.408 1.131,-3.942 0.806,-5.915 1.06,-12.084 1.459,-17.959 0.115,-1.498 0.078,-4.602 -0.654,-6.279 h 7.3 c -0.616,1.24 -0.839,2.264 -1.026,3.794 -0.69,5.403 -0.833,10.481 -1.236,16.175 -0.111,1.419 -0.183,2.591 -0.183,3.107 0,1.311 0.146,1.568 1.717,1.568 5.983,0 9.017,-0.434 12.85,-3.582 -1.641,6.467 -2.077,7.118 -4.563,7.118"
   id="path35"
   inkscape:connector-curvature="0"
   style="fill:#71caee" />
<path
   d="m 294.13499,82.296 c -2.444,-1.463 -4.166,-1.688 -7.924,-1.688 h -2.407 c -0.298,1.791 -0.586,5.555 -0.769,7.928 h 3.358 c 3.139,0 5.002,-0.149 6.641,-0.657 l -0.653,4.456 c -2.889,-0.474 -4.781,-0.369 -7.453,-0.369 h -2.15 c -0.22,2.997 -0.545,7.707 -0.545,8.475 0,1.856 0.214,2.073 1.68,2.073 5.255,0 7.662,-1.271 10.622,-4.087 -0.985,6.762 -1.385,7.118 -5.178,7.118 h -13.734 c 0.62,-1.232 0.912,-2.364 1.132,-3.942 0.478,-3.575 0.693,-7.114 0.914,-10.733 0.254,-4.308 0.512,-7.558 0.474,-9.854 -0.036,-1.425 -0.146,-2.484 -0.626,-3.65 h 17.418 l -0.8,4.93"
   id="path37"
   inkscape:connector-curvature="0"
   style="fill:#71caee" />
<path
   d="m 318.88299,105.805 c -2.4,0 -2.624,-0.074 -4.523,-6.721 l -0.697,-2.438 c -1.165,0.538 -3.244,0.798 -6.565,0.798 h -3.363 l -0.585,1.246 c -0.62,1.311 -2.008,4.009 -1.968,5.577 0,0.372 0.037,0.742 0.18,1.277 h -6.752 c 1.934,-1.932 4.382,-6.461 7.774,-13.684 l 1.971,-4.199 c 1.791,-3.803 3.691,-8.108 3.691,-8.729 0,-0.552 -0.149,-1.06 -0.362,-1.568 h 6.125 c 1.611,6.092 3.03,11.172 3.03,11.172 l 1.206,4.452 c 2.051,7.484 3.399,11.133 5.15,12.557 -1.576,0.186 -3.537,0.26 -4.312,0.26 m -8.871,-21.833 -4.564,9.819 h 7.412 l -2.848,-9.819 z"
   id="path39"
   inkscape:connector-curvature="0"
   style="fill:#71caee" />
<path
   d="m 345.76199,103.394 c -0.074,0.728 -0.261,0.986 -0.85,1.209 -2.808,1.088 -6.935,1.49 -9.671,1.49 -7.737,0 -12.047,-5.072 -12.047,-12.594 0,-9.527 5.589,-16.683 15.806,-16.683 0.88,0 1.974,0.075 3.071,0.18 1.351,0.149 2.813,0.332 4.198,0.368 l -0.84,6.384 c -2.702,-2.661 -4.862,-3.509 -7.232,-3.509 -6.935,0 -9.271,6.979 -9.271,12.676 0,5.586 2.403,9.571 7.526,9.571 1.562,0 4.267,-0.26 4.379,-1.757 0.102,-1.392 0.365,-3.396 0.365,-5.256 0,-0.985 -0.111,-1.937 -0.332,-2.742 h 5.77 l -0.872,10.663"
   id="path41"
   inkscape:connector-curvature="0"
   style="fill:#71caee" />
<path
   d="m 372.18599,83.972 -0.579,9.565 c -0.474,7.595 -3.136,12.556 -11.391,12.556 -9.2,0 -9.854,-6.058 -9.386,-13.104 l 0.402,-6.102 c 0.146,-2.403 0.221,-4.304 0.221,-5.729 0,-1.057 0.033,-2.442 -0.729,-3.794 h 7.226 c -0.799,2.3 -1.242,6.675 -1.459,9.639 l -0.437,6.061 c -0.515,6.822 -0.475,9.636 5.038,9.636 3.945,0 6.349,-2.037 6.827,-9.711 l 0.656,-10.729 c 0.108,-1.934 -0.148,-3.506 -0.62,-4.895 h 5.401 c -0.834,2.083 -1.02,4.382 -1.17,6.607"
   id="path43"
   inkscape:connector-curvature="0"
   style="fill:#71caee" />
<path
   d="m 393.66099,82.296 c -2.451,-1.463 -4.165,-1.688 -7.931,-1.688 h -2.406 c -0.288,1.791 -0.583,5.555 -0.763,7.928 h 3.355 c 3.146,0 5.005,-0.149 6.641,-0.657 l -0.65,4.456 c -2.885,-0.474 -4.784,-0.369 -7.452,-0.369 h -2.154 c -0.22,2.997 -0.548,7.707 -0.548,8.475 0,1.856 0.223,2.073 1.682,2.073 5.259,0 7.666,-1.271 10.626,-4.087 -0.985,6.762 -1.392,7.118 -5.184,7.118 h -13.728 c 0.619,-1.232 0.911,-2.364 1.125,-3.942 0.479,-3.575 0.697,-7.114 0.917,-10.733 0.257,-4.308 0.508,-7.558 0.475,-9.854 -0.034,-1.425 -0.146,-2.484 -0.62,-3.65 h 17.418 l -0.803,4.93"
   id="path45"
   inkscape:connector-curvature="0"
   style="fill:#71caee" />
<path
   d="m 527.99599,63.218 c 0,31.143 -25.04,52.114 -55.909,52.114 -30.889,0 -55.915,-20.972 -55.915,-52.114 0,-31.118 25.026,-56.351 55.915,-56.351 30.869,0 55.909,25.233 55.909,56.351"
   id="path47"
   inkscape:connector-curvature="0"
   style="fill:#ffffff" />
<g
   id="g49"
   transform="translate(-33.134009,-358.073)">
	<defs
   id="defs51">
		<path
   id="SVGID_1_"
   d="m 561.13,421.291 c 0,31.143 -25.04,52.114 -55.909,52.114 -30.889,0 -55.915,-20.972 -55.915,-52.114 0,-31.118 25.026,-56.351 55.915,-56.351 30.869,0 55.909,25.233 55.909,56.351"
   inkscape:connector-curvature="0" />
	</defs>
	<clipPath
   id="SVGID_2_">
		<use
   xlink:href="#SVGID_1_"
   overflow="visible"
   id="use55"
   style="overflow:visible"
   x="0"
   y="0"
   width="595.28003"
   height="841.89001" />
	</clipPath>
	<path
   clip-path="url(#SVGID_2_)"
   d="m 557.788,403.274 c -1.99,-1.206 -3.335,-2.286 -5.959,-2.825 -0.985,6.939 -3.129,14.158 -6.468,19.532 4.379,4.886 7.508,12.229 8.526,18.698 2.668,-0.929 3.921,-2.361 5.641,-3.852 0.753,-3.023 1.193,-5.986 1.426,-9.125 0.522,-7.888 -0.619,-15.49 -3.166,-22.428"
   id="path57"
   inkscape:connector-curvature="0"
   style="fill:#00a8de" />
	<path
   clip-path="url(#SVGID_2_)"
   d="m 506.259,364.998 c -2.14,1.652 -4.138,2.248 -5.753,4.707 6.207,3.247 12.321,7.655 16.28,12.593 7.426,-2.188 14.008,-2.702 20.527,-1.907 -0.024,-1.784 -0.594,-3.799 -1.896,-6.734 -6.813,-4.86 -18.807,-8.981 -29.158,-8.659"
   id="path59"
   inkscape:connector-curvature="0"
   style="fill:#00a8de" />
	<path
   clip-path="url(#SVGID_2_)"
   d="m 517.572,459.344 c -5.134,6.115 -10.406,7.084 -16.453,10.608 1.727,2.391 3.623,3.742 5.842,5.313 10.16,-0.192 22.74,-2.014 30.379,-7.753 1.039,-3.539 0.082,-6.437 0.02,-8.235 -6.466,1.104 -11.586,2.231 -19.109,0.399"
   id="path61"
   inkscape:connector-curvature="0"
   style="fill:#00a8de" />
</g>
<path
   d="m 421.74799,72.117 c 0.539,0.697 10.288,7.72 16.657,9.047 0,0 -0.833,11.276 3.626,20.717 0,0 -10.154,0.775 -15.062,-0.688 0,0 -6.9,-5.686 -10.947,-19.533 l 5.726,-9.543"
   id="path63"
   inkscape:connector-curvature="0"
   style="fill:#00245d" />
<path
   d="m 448.11899,17.415 c -0.527,0.762 -4.27,12.204 -3.366,18.292 0,0 -14.397,4.487 -19.604,11.292 0,0 -4.849,-7.849 -5.089,-12.731 0,0 3.386,-8.405 16.188,-17.794 l 11.871,0.941"
   id="path65"
   inkscape:connector-curvature="0"
   style="fill:#00245d" />
<path
   d="m 493.09299,38.683 c -3.653,-0.061 -6.128,1.924 -6.163,4.429 -0.02,1.335 0.767,2.713 2.043,3.038 -0.895,1.368 -2.699,1.869 -4.762,1.768 -3.805,-0.18 -5.753,-3.028 -5.851,-8.211 -0.102,-5.184 -0.637,-7.677 -3.81,-8.753 -1.418,-0.488 -3.487,-0.538 -4.666,-0.515 -0.843,0.013 -1.436,0.447 -1.802,0.884 -0.571,-0.007 -0.689,-0.007 -1.168,-0.017 -4.975,-0.068 -6.941,3.284 -5.77,5.042 0.314,-0.474 0.911,-0.738 2.35,-0.722 2.218,0.031 4.833,1.148 4.677,4.494 -0.244,5.187 -2.676,7.408 -6.475,7.477 -2.064,0.047 -3.874,-0.508 -4.71,-1.893 1.28,-0.292 2.103,-1.646 2.124,-2.99 0.032,-2.506 -2.378,-4.544 -6.031,-4.599 -5.53,-0.078 -11.994,4.429 -12.211,19.578 -0.118,8.666 2.378,16.284 6.661,22.643 0.135,0.186 0.324,0.196 0.511,0.023 2.049,-2.008 3.982,-4.473 5.245,-6.908 0.299,0.204 0.549,0.644 0.539,1.221 -0.026,1.956 -1.652,5.914 -3.282,8.475 -0.737,1.158 0.322,2.078 1.43,1.385 3.423,-2.551 7.271,-7.365 9.484,-12.339 0.376,0.254 0.627,0.823 0.619,1.463 -0.022,1.94 -2.454,8.197 -7.675,14.159 -0.143,0.156 -0.13,0.322 0.003,0.455 5.023,4.561 11.16,8.13 17.82,10.567 6.731,-2.237 12.965,-5.634 18.109,-10.065 0.142,-0.123 0.165,-0.285 0.027,-0.448 -5.053,-6.111 -7.304,-12.431 -7.281,-14.37 0.01,-0.633 0.285,-1.203 0.667,-1.443 2.066,5.029 5.784,9.963 9.133,12.611 1.073,0.659 2.178,-0.17 1.473,-1.352 -1.562,-2.604 -3.075,-6.604 -3.043,-8.563 0,-0.586 0.28,-1.013 0.575,-1.209 1.194,2.479 3.051,4.998 5.048,7.057 0.179,0.187 0.376,0.173 0.508,-0.011 4.459,-6.229 7.172,-13.777 7.301,-22.436 0.215,-15.154 -6.118,-19.84 -11.647,-19.925"
   id="path67"
   inkscape:connector-curvature="0"
   style="fill:#00245d" />
</svg>