<?xml version="1.0" encoding="UTF-8" standalone="no"?>
<!-- Created with Inkscape (http://www.inkscape.org/) -->

<svg
   xmlns:dc="http://purl.org/dc/elements/1.1/"
   xmlns:cc="http://creativecommons.org/ns#"
   xmlns:rdf="http://www.w3.org/1999/02/22-rdf-syntax-ns#"
   xmlns:svg="http://www.w3.org/2000/svg"
   xmlns="http://www.w3.org/2000/svg"
   version="1.1"
   width="498"
   height="119"
   id="svg2">
  <metadata
     id="metadata8">
    <rdf:RDF>
      <cc:Work
         rdf:about="">
        <dc:format>image/svg+xml</dc:format>
        <dc:type
           rdf:resource="http://purl.org/dc/dcmitype/StillImage" />
        <dc:title></dc:title>
      </cc:Work>
    </rdf:RDF>
  </metadata>
  <defs
     id="defs6" />
  <path
     d="m 41.27258,118.03581 c -2.06858,-0.43737 -3.916,-0.97775 -4.10539,-1.20085 -0.18939,-0.22309 1.10296,-5.58062 2.87188,-11.90562 l 3.21622,-11.5 7.88916,-0.55443 c 4.62903,-0.32532 9.27061,-1.28559 11.2321,-2.32374 1.83861,-0.97312 3.46525,-1.62362 3.61474,-1.44557 0.1495,0.17806 3.48415,4.81145 7.41034,10.29643 l 7.13853,9.9727 -3.75327,2.2678 c -9.00478,5.44086 -25.75634,8.45648 -35.51431,6.39328 z"
     style="fill:#369827;fill-opacity:1" />
  <path
     d="m 81.53362,102.72427 c -3.575,-5.0445 -6.66299,-9.57601 -6.86221,-10.07 -0.19921,-0.494 0.98791,-2.3217 2.63805,-4.06155 3.48284,-3.67221 5.68618,-7.78461 6.70565,-12.5157 l 0.72237,-3.35232 11.81494,0.35232 c 6.49822,0.19378 12.14958,0.68705 12.55858,1.09616 1.24684,1.24718 -1.56506,11.8424 -5.1395,19.36563 -3.01927,6.35475 -13.00963,18.42405 -15.20899,18.37391 -0.40089,-0.009 -3.65389,-4.14394 -7.22889,-9.18845 z"
     style="fill:#ffdf00;fill-opacity:1" />
  <path
     d="M 24.54217,104.38639 C 20.97186,102.46275 15.49828,98.36306 12.37864,95.27597 6.9099395,89.86434 0.73182955,80.3978 1.9038595,79.22577 2.5537095,78.57592 22.71476,69.92934 23.58014,69.92934 c 0.31267,0 1.98997,2.01668 3.72734,4.48151 1.84863,2.62267 5.24073,5.62982 8.17809,7.25 2.76058,1.52267 5.02572,3.21944 5.03364,3.7706 0.008,0.55116 -1.33559,5.72521 -2.98559,11.49789 -1.65,5.77268 -3,10.60923 -3,10.74789 0,1.12808 -4.60489,-0.38862 -9.99145,-3.29084 z"
     style="fill:#028fd1;fill-opacity:1" />
  <path
     d="m 471.94766,65.67934 c -2.07689,-6.4837 -7.42257,-24.09189 -7.47711,-24.62895 -0.0821,-0.80811 -7.93693,24.98103 -7.93693,26.05859 0,0.4512 3.63032,0.82036 8.06739,0.82036 7.91306,0 8.0536,-0.043 7.34665,-2.25 z m -29.96552,14.5 c 1.79017,-5.9125 6.09785,-20.0875 9.57262,-31.5 l 6.31778,-20.75 8.30749,0 c 7.52697,0 8.44686,0.21272 9.79095,2.26406 0.81591,1.24523 5.92986,15.42023 11.36434,31.5 l 9.88088,29.23594 -8.80552,0 -8.80551,0 -1.83889,-6.25 -1.83889,-6.25 -11.54024,-0.28038 -11.54024,-0.28038 -1.76769,6.53038 -1.76769,6.53038 -5.29212,0 -5.29211,0 3.25484,-10.75 z m -39.91245,-19.5 c -5.40547,-16.6375 -10.03555,-30.8125 -10.28908,-31.5 -0.34332,-0.93098 1.48419,-1.25 7.16072,-1.25 7.32282,0 7.68973,0.11258 9.35699,2.871 0.95441,1.57904 4.42792,11.89892 7.7189,22.93306 3.29099,11.03414 6.12885,19.91683 6.30636,19.73931 0.17752,-0.17752 3.33969,-10.3849 7.02706,-22.68306 l 6.70429,-22.36031 5.32425,-0.3052 c 4.73475,-0.27142 5.26557,-0.10533 4.79421,1.5 -1.76829,6.0223 -15.99545,52.62506 -17.26551,56.5552 l -1.53499,4.75 -7.73754,0 -7.73754,0 -9.82812,-30.25 z m -25.78815,17.95663 c 2.09385,-2.09385 2.68989,-3.77823 2.97685,-8.41234 0.41498,-6.70161 -0.87635,-9.80592 -5.32655,-12.80492 l -3.07265,-2.07065 3.33721,-4.94086 c 3.70211,-5.48108 4.09323,-7.9535 1.78052,-11.25535 -1.31173,-1.87276 -2.49199,-2.22251 -7.5,-2.22251 l -5.9433,0 0,22.62383 0,22.62383 5.56493,-0.46149 c 4.29266,-0.35598 6.16348,-1.06003 8.18299,-3.07954 z m -28.74792,-19.27109 0,-31.56446 17.48334,0.31446 17.48333,0.31446 3.18333,3.1859 c 4.26269,4.26612 4.43609,10.31897 0.46743,16.31602 l -2.71591,4.10402 4.98245,4.47965 c 9.40291,8.45402 10.01466,20.48106 1.45531,28.61136 -5.28803,5.02296 -8.82445,5.80305 -26.30716,5.80305 l -16.03212,0 0,-31.56446 z m -26.22507,20.56026 c 3.79302,-2.31261 5.23103,-5.43432 5.21033,-11.3109 -0.0186,-5.27033 -1.66193,-8.55039 -5.6204,-11.218 l -3.106,-2.09314 3.35528,-4.93688 c 3.85832,-5.67704 4.21361,-8.60913 1.38586,-11.43688 -1.51515,-1.51515 -3.33333,-2 -7.5,-2 l -5.5,0 0,22.5 0,22.5 4.25,-0.004 c 2.48173,-0.002 5.61258,-0.8345 7.52493,-2.00046 z m -26.77493,-20.4958 0,-31.5 16.25,0.004 c 14.32631,0.003 16.62718,0.23372 19.43618,1.94649 1.7524,1.06851 3.71701,2.93462 4.3658,4.1469 1.98494,3.70889 1.32016,9.74213 -1.55159,14.08164 l -2.62197,3.96207 4.43437,3.90329 c 5.54615,4.88191 7.68721,9.31227 7.68721,15.90666 0,5.78553 -1.49889,9.29295 -5.66072,13.24616 -5.28803,5.0227 -8.82445,5.80279 -26.30716,5.80279 l -16.03212,0 0,-31.5 z m -27,5.33333 c 0,-3.94166 -0.15886,-6.97916 -0.35302,-6.75 -0.19417,0.22917 -2.0329,3.45417 -4.08607,7.16667 l -3.73304,6.75 4.08606,0 4.08607,0 0,-7.16667 z M 233.82195,90.1792 c 3.85037,-7.10645 23.56653,-39.37602 25.10835,-41.09501 3.55941,-3.96829 7.02442,-5.15485 15.05366,-5.15485 l 7.54966,0 0,23.5 0,23.5 -7,0 -7,0 0,-5 0,-5 -6.50924,0 -6.50925,0 -3.07653,5 -3.07653,5 -7.47324,0 c -4.11028,0 -7.29038,-0.3375 -7.06688,-0.75 z m -59.25284,-0.45619 c 0.0195,-0.7116 3.08393,-11.19381 6.80979,-23.29381 l 6.7743,-22 7.22041,-0.29442 c 7.09147,-0.28916 7.20998,-0.25345 6.63653,2 -0.32114,1.26193 -3.42878,11.74442 -6.90586,23.29442 l -6.32198,21 -7.12434,0.29381 c -5.32642,0.21966 -7.11538,-0.0327 -7.08885,-1 z m 27.22083,1.17737 c -3.196,-1.28493 -6.24821,-6.81414 -6.25258,-11.32684 -0.01,-9.9682 7.50236,-28.72981 13.1024,-32.72381 3.20441,-2.28541 4.30843,-2.43834 19.77734,-2.73957 15.49981,-0.30183 16.34566,-0.22092 15.68227,1.5 -0.38567,1.00047 -1.21407,3.73154 -1.84089,6.06904 l -1.13967,4.25 -11.23589,0 c -10.51365,0 -11.33823,0.14463 -12.82795,2.25 -2.28417,3.22813 -5.72668,15.09288 -5.34524,18.4226 0.29729,2.59521 0.70224,2.85195 4.93102,3.12636 l 4.60714,0.29895 1.90119,-5.29895 1.90119,-5.29896 6.74167,-0.29569 c 8.11074,-0.35574 8.03792,-0.60011 3.70058,12.41904 -3.00967,9.03399 -3.07941,9.13464 -6.75,9.74147 -5.53891,0.91571 -24.38026,0.64053 -26.95258,-0.39364 z m -58.2405,0.005 c -1.91631,-0.45058 -4.55829,-2.06795 -5.87107,-3.59415 -2.0843,-2.42314 -2.31875,-3.47894 -1.84939,-8.32841 0.29563,-3.05441 2.51195,-12.07848 4.92516,-20.05348 l 4.38765,-14.5 7.32468,-0.29641 c 6.64374,-0.26885 7.27757,-0.1294 6.8179,1.5 -0.27873,0.98803 -2.44775,8.39659 -4.82003,16.46349 -5.50365,18.71498 -5.67968,18.36624 8.82276,17.4789 l 10.28037,-0.62901 -0.65002,2.74151 c -1.84889,7.79791 -2.82562,8.89629 -8.51892,9.57993 -6.96717,0.8366 -16.45093,0.67177 -20.84909,-0.36237 z"
     style="fill:#2f4a89;fill-opacity:1" />
  <path
     d="m 67.96002,60.26892 c 0.29881,-0.19655 0.75218,-0.92567 1.00747,-1.62029 0.41436,-1.12739 0.29298,-1.41838 -1.13114,-2.71188 -1.87122,-1.69956 -1.7387,-1.675 -3.43743,-0.63696 -0.94502,0.57748 -1.32883,1.18126 -1.32883,2.09042 0,2.11161 3.19585,3.99302 4.88993,2.87871 z m 0.49469,7.94577 c 1.61502,-1.15744 1.52039,-2.93032 -0.2282,-4.27476 -1.14391,-0.87951 -1.31116,-0.89366 -2.33789,-0.19774 -2.7923,1.89264 -3.13215,4.03828 -0.83669,5.28245 1.26001,0.68293 1.34944,0.66164 3.40278,-0.80995 z m 4.11365,-5.81242 c 1.25885,-2.85811 -0.0708,-5.30177 -2.57521,-4.73277 -1.69604,0.38535 -2.79613,3.37573 -1.83037,4.97546 0.90112,1.49263 3.70939,1.33792 4.40558,-0.24269 z m -10.39665,1.63469 c 0.68561,-0.7837 0.71617,-1.1518 0.23381,-2.8172 -0.44444,-1.53454 -0.82096,-1.97617 -1.89232,-2.2196 -2.50439,-0.56901 -3.83406,1.87467 -2.57521,4.73275 0.66319,1.50571 3.03354,1.67595 4.23372,0.30405 z m 6.77191,6.30834 c 1.06652,-0.70131 1.42857,-2.62579 0.70802,-3.7634 -0.97588,-1.54071 -4.29242,-1.52688 -5.27347,0.022 -0.59103,0.9331 -0.60174,1.30653 -0.0747,2.60317 0.53973,1.3279 0.82872,1.51293 2.35316,1.50658 0.95583,-0.003 1.98497,-0.16975 2.287,-0.36835 z m -7.30459,-0.36617 c -8.05097,-2.96948 -7.54566,-15.49536 0.71796,-17.7972 5.73153,-1.59654 11.33585,2.86356 11.33585,9.02144 0,6.65761 -5.98426,11.01444 -12.05381,8.77576 z"
     style="fill:#fefefe;fill-opacity:1" />
  <path
     d="m 5.1834795,70.25166 c -3.5507,-12.18965 -3.79237,-23.54662 -0.70906,-33.32232 3.38025,-10.71716 1.53921,-10.77213 21.7540605,0.64953 l 4.19486,2.37015 -1.56698,3.74016 c -1.15718,2.76202 -1.43075,5.74174 -1.04604,11.39369 l 0.52096,7.65354 -10.14883,4.20795 c -5.58186,2.31438 -10.6706705,4.41533 -11.3084905,4.66879 -0.63781,0.25346 -1.39852,-0.35921 -1.69048,-1.36149 z"
     style="fill:#005aa1;fill-opacity:1" />
  <path
     d="M 97.35536,68.19723 92.6771,67.82562 91.6052,62.82751 C 90.39386,57.17922 88.20004,52.4161 85.39288,49.3396 c -1.89772,-2.07982 -1.86819,-2.13328 6.21427,-11.25 4.46658,-5.03815 8.47255,-9.16026 8.90215,-9.16026 1.51127,0 8.95029,10.61776 11.92627,17.02245 1.65541,3.56265 3.47628,9.40255 4.04639,12.97755 1.70233,10.67494 2.14537,10.02544 -6.69834,9.81975 -4.2625,-0.0991 -9.855216,-0.34747 -12.42826,-0.55186 z"
     style="fill:#f4a32e;fill-opacity:1" />
  <path
     d="m 28.03362,33.27541 c -5.5,-3.06662 -10.18818,-5.74969 -10.41817,-5.96238 -0.93194,-0.86181 2.7406,-6.03498 8.07572,-11.37551 C 31.49795,10.12486 42.2956,3.72727 48.53362,2.4034 c 1.925,-0.40853 3.70003,-0.79482 3.94451,-0.85842 0.24448,-0.0636 1.40448,5.36532 2.57777,12.06428 l 2.13327,12.17991 -4.53863,1.73332 c -2.49624,0.95332 -6.71517,3.90986 -9.37539,6.57008 -2.66022,2.66022 -4.92784,4.81916 -5.03915,4.79764 -0.11131,-0.0215 -4.70238,-2.54818 -10.20238,-5.6148 z"
     style="fill:#a82583;fill-opacity:1" />
  <path
     d="M 79.35432,35.33848 C 76.52599,33.86823 72.38295,32.74409 68.88058,32.49661 L 63.08613,32.08718 60.93348,20.25826 C 59.3647,11.63776 59.08634,8.20937 59.90722,7.61834 61.88576,6.19381 77.7616,7.73285 84.33304,9.98623 c 6.35188,2.17809 15.290954,7.52613 15.9155,9.52188 0.35141,1.12291 -14.35516,18.48111 -15.54011,18.34202 -0.37114,-0.0436 -2.78049,-1.1738 -5.35411,-2.51165 z"
     style="fill:#e33029;fill-opacity:1" />
  <path
     d="M 56.64279,80.01433 C 50.0133,79.55912 44.05513,75.5607 41.04864,69.54938 40.48143,68.41526 40.10795,67.48994 39.79494,66.44323 38.1431,60.91934 38.98885,54.95079 42.0954,50.20846 c 0.80127,-1.22316 1.41308,-1.97702 2.4803,-3.0562 1.00721,-1.0185 1.87834,-1.74177 2.98883,-2.48156 4.41078,-2.93836 9.90583,-3.86455 15.08734,-2.54296 3.23564,0.82528 6.29121,2.59787 8.71218,5.05407 1.40899,1.42952 2.57845,3.05828 3.46406,4.82459 1.00757,2.00956 1.57484,3.80565 1.91135,6.05177 0.17945,1.19772 0.22301,3.43923 0.0915,4.70383 -0.69198,6.65032 -4.62951,12.38289 -10.51722,15.31177 -2.31579,1.15201 -4.62971,1.77553 -7.22114,1.94585 -0.97992,0.0644 -1.44942,0.0635 -2.44975,-0.006 z"
     style="fill:#000000" />
  <path
     d="m 59.63973,78.97428 c 1.28956,-0.18026 2.75052,-0.51096 4.02189,-0.91033 l 0.47821,-0.15022 0.77835,-2.88703 c 0.42809,-1.58786 0.77768,-2.90658 0.77686,-2.93053 -7.5e-4,-0.024 -0.94602,-1.39914 -2.10043,-3.05599 l -2.09892,-3.01247 -1.34141,-0.0371 c -0.73777,-0.0205 -2.13939,-0.0406 -3.1147,-0.0449 l -1.7733,-0.008 -2.53819,3.09636 c -1.39601,1.703 -2.5598,3.13277 -2.58622,3.17729 -0.0305,0.0514 0.35308,1.12451 1.05465,2.94979 l 1.10269,2.86885 0.39235,0.18309 c 0.90049,0.42022 1.94037,0.71264 2.99105,0.8411 0.70321,0.086 3.11917,0.0372 3.95712,-0.0801 z"
     style="fill:#fefefe;fill-opacity:1" />
  <path
     d="m 72.44703,71.60312 c 1.41157,-1.62113 2.36034,-3.48206 2.96474,-5.8151 0.35752,-1.38004 0.55847,-2.93452 0.55847,-4.32001 l 0,-0.62833 -2.54336,-1.70612 -2.54337,-1.70613 -3.20037,1.05639 c -1.76019,0.581 -3.2291,1.08694 -3.26421,1.12431 -0.0738,0.0786 -2.34783,5.65239 -2.34783,5.75487 0,0.0907 4.44586,6.14995 4.53891,6.18617 0.0692,0.027 4.85264,0.41915 5.28927,0.43369 0.18876,0.006 0.24645,-0.0337 0.54775,-0.37974 z"
     style="fill:#fefefe;fill-opacity:1" />
  <path
     d="m 51.92279,68.62423 2.55976,-2.99933 -1.16543,-2.94447 c -0.64098,-1.61945 -1.18318,-2.96495 -1.20488,-2.99002 -0.0422,-0.0486 -7.07925,-2.49928 -7.17882,-2.50001 -0.0325,0 -1.10887,0.80844 -2.39198,1.79708 -2.68945,2.07221 -2.38271,1.67904 -2.45402,3.14533 -0.14097,2.8988 0.87683,5.88818 2.98855,8.77773 l 0.3509,0.48013 0.31031,0.004 c 0.17069,0.003 1.42659,0.0528 2.79091,0.11139 1.36431,0.0586 2.56032,0.10882 2.65777,0.11162 0.16226,0.004 0.39266,-0.24748 2.73693,-2.99434 z"
     style="fill:#fefefe;fill-opacity:1" />
  <path
     d="m 54.91481,56.73628 c 1.23439,-1.13896 2.31931,-2.14579 2.41094,-2.23743 l 0.16659,-0.16661 0.0828,-3.52997 c 0.0455,-1.94148 0.0835,-3.80142 0.0844,-4.1332 l 0.002,-0.60324 -2.79065,-1.27185 -2.79065,-1.27184 -0.56109,0.18792 c -3.64815,1.22187 -6.99514,3.92871 -8.48791,6.86447 l -0.21662,0.426 1.20724,2.67528 1.20724,2.67525 3.63229,1.22178 c 1.99775,0.67199 3.67214,1.22458 3.72087,1.228 0.0487,0.003 1.09854,-0.92561 2.33293,-2.06456 z"
     style="fill:#fefefe;fill-opacity:1" />
  <path
     d="m 67.31436,57.70129 c 1.78474,-0.57679 3.27702,-1.083 3.31616,-1.1249 0.16624,-0.17797 2.69801,-4.45995 2.69381,-4.55601 -0.007,-0.17535 -0.63269,-1.39155 -1.03316,-2.01035 -1.13713,-1.75715 -2.67386,-3.30111 -4.50095,-4.52217 -0.64619,-0.43185 -2.25518,-1.28049 -2.83495,-1.49526 l -0.23625,-0.0875 -3.01213,1.09656 c -1.65668,0.60311 -3.03009,1.10458 -3.05203,1.11436 -0.022,0.0102 -0.0792,1.86486 -0.12735,4.1224 l -0.0874,4.10462 0.12734,0.12934 c 0.31589,0.32083 5.37165,4.32451 5.43304,4.30244 0.0379,-0.0138 1.52915,-0.4967 3.31392,-1.07353 z"
     style="fill:#fefefe;fill-opacity:1" />
</svg>
